# xmcd
#
# Track frame offsets:
#	150
#	24247
#	47977
#	65657
#	91426
#	121092
#	143409
#	156894
#	174819
#	193082
#	206842
#	219252
#	287822
#
# Disc length: 4052 seconds
#
# Revision: 1
# Processed by: cddbd v1.5.2PL0 Copyright (c) Steve Scherf et al.
# Submitted via: audiograbber 1.83.01
#
DISCID=b60fd20d
DTITLE=Various Artist - Harlem Sessions [CD2)
DYEAR=2002
DGENRE=Soul
TTITLE0=Curtis Mayfield - Little Child Running Wild
TTITLE1=Mavis Staples - Chocolate City
TTITLE2=Shirley Brown - Woman to Woman
TTITLE3=Johnny Guitar Watson - Superman Lover
TTITLE4=Yusuf Lateef - Nubian Lady
TTITLE5=Bootsy Collins - I'd Rather Be With You
TTITLE6=Young Holt Trio - Wack Wack
TTITLE7=S.O.U.L. - Burning Spear
TTITLE8=Booker T and The MG's - Over Easy
TTITLE9=Mongo Santamaria - We Got Latin Soul
TTITLE10=Cicero Blake - A Woman Needs To Be Loved
TTITLE11=Pucho and The Latin Soul Brothers - Superfly, Pusherman, Freddie's Dead
TTITLE12=Lost Generation - This Is The Lost Generation
EXTD=
EXTT0=
EXTT1=
EXTT2=
EXTT3=
EXTT4=
EXTT5=
EXTT6=
EXTT7=
EXTT8=
EXTT9=
EXTT10=
EXTT11=
EXTT12=
PLAYORDER=
